<svg xmlns="http://www.w3.org/2000/svg" viewBox="0 0 64 64" fill="none" stroke="currentColor" stroke-width="1.5" stroke-linecap="round" stroke-linejoin="round"><g transform="translate(3 3) scale(1.8)"><path d="M12 4c-4-5-9 1-7 4-5 2-4 9 1 9-1 5 6 6 6 2V4m0 0c4-5 9 1 7 4 5 2 4 9-1 9 1 5-6 6-6 2M6 9l3 2-2 4m11-6-3 2 2 4"/></g><circle cx="50" cy="50" r="13" fill="#ffffff" stroke="none"/><g transform="translate(40 40) scale(.83)"><path d="M4 8a9 9 0 0 1 16 0M4 8V2m0 6h6M20 16a9 9 0 0 1-16 0m16 0v6m0-6h-6"/></g></svg>
