<svg xmlns="http://www.w3.org/2000/svg" viewBox="0 0 64 64" fill="none" stroke="currentColor" stroke-width="1.5" stroke-linecap="round" stroke-linejoin="round"><g transform="translate(3 3) scale(1.8)"><rect x="3" y="4" width="18" height="17" rx="2"/><path d="M3 9h18M7 2v5M17 2v5M7 13h2m4 0h2m-8 4h2m4 0h2"/></g><circle cx="50" cy="50" r="13" fill="#ffffff" stroke="none"/><g transform="translate(40 40) scale(.83)"><path d="M8 17C5 11 10 3 20 2c0 10-6 16-12 15zM8 9H3l-2 7h7m7 1v6l7-2v-6M4 19l-2 4 5-2"/><circle cx="15" cy="7" r="2"/></g></svg>
