<svg xmlns="http://www.w3.org/2000/svg" viewBox="0 0 64 64" fill="none" stroke="currentColor" stroke-width="1.5" stroke-linecap="round" stroke-linejoin="round"><g transform="translate(3 3) scale(1.8)"><path d="m10 2 4 0 1 3 3-1 2 3-2 3 4 1v4l-4 1 2 3-2 3-3-1-1 3h-4l-1-3-3 1-2-3 2-3-4-1v-4l4-1-2-3 2-3 3 1z"/><circle cx="12" cy="13" r="4"/></g><circle cx="50" cy="50" r="13" fill="#ffffff" stroke="none"/><g transform="translate(40 40) scale(.83)"><circle cx="8" cy="7" r="3"/><circle cx="17" cy="8" r="2.5"/><path d="M2 21v-3c0-7 12-7 12 0v3m2 0v-4c0-4 6-4 6 0v4"/></g></svg>
