<svg xmlns="http://www.w3.org/2000/svg" viewBox="0 0 960 540" role="img" aria-label="Comparación: benefit limit. La disposición muestra relaciones, no magnitudes."><text x="480" y="48" text-anchor="middle" font-size="28" font-weight="700" fill="#152238" stroke="none"><tspan x="480" dy="-0.0">Comparación</tspan></text><path d="M12 2v20M4 22h16M3 6h18M5 6l-4 9h8zM19 6l-4 9h8z" transform="translate(445 66) scale(2.8)" fill="none" stroke-width="1.3" stroke="#334155" /><line x1="480" y1="150" x2="250" y2="305" stroke-width="3" fill="none" stroke="#576472" /><path d="M355.05 234.21L367.34 217.78L374.89 228.98Z" stroke-width="1" fill="none" stroke="#334155" /><line x1="480" y1="150" x2="710" y2="305" stroke-width="3" fill="none" stroke="#576472" /><path d="M604.95 234.21L585.11 228.98L592.66 217.78Z" stroke-width="1" fill="none" stroke="#334155" /><line x1="250" y1="305" x2="480" y2="445" stroke-width="3" fill="none" stroke="#576472" /><path d="M375.25 381.24L355.19 376.94L362.21 365.40Z" stroke-width="1" fill="none" stroke="#334155" /><line x1="710" y1="305" x2="480" y2="445" stroke-width="3" fill="none" stroke="#576472" /><path d="M584.75 381.24L597.79 365.40L604.81 376.94Z" stroke-width="1" fill="none" stroke="#334155" /><rect x="378" y="116" width="204" height="68" rx="12" stroke-width="2" fill="#ffffff" stroke="#ffffff" /><rect x="378" y="116" width="204" height="68" rx="12" fill="none" stroke-width="2" stroke="#152238" /><text x="480" y="157" text-anchor="middle" font-size="24" font-weight="600" fill="#152238" stroke="none"><tspan x="480" dy="-0.0">Antes</tspan></text><rect x="148" y="271" width="204" height="68" rx="12" stroke-width="2" fill="#ffffff" stroke="#ffffff" /><rect x="148" y="271" width="204" height="68" rx="12" fill="none" stroke-width="2" stroke="#152238" /><text x="250" y="312" text-anchor="middle" font-size="24" font-weight="600" fill="#152238" stroke="none"><tspan x="250" dy="-0.0">Después</tspan></text><rect x="608" y="271" width="204" height="68" rx="12" stroke-width="2" fill="#ffffff" stroke="#ffffff" /><rect x="608" y="271" width="204" height="68" rx="12" fill="none" stroke-width="2" stroke="#152238" /><text x="710" y="312" text-anchor="middle" font-size="24" font-weight="600" fill="#152238" stroke="none"><tspan x="710" dy="-0.0">Evidencia</tspan></text><rect x="378" y="411" width="204" height="68" rx="12" stroke-width="2" fill="#ffffff" stroke="#ffffff" /><rect x="378" y="411" width="204" height="68" rx="12" fill="none" stroke-width="2" stroke="#334155" /><text x="480" y="452" text-anchor="middle" font-size="24" font-weight="600" fill="#152238" stroke="none"><tspan x="480" dy="-0.0">Límite</tspan></text></svg>
