<svg xmlns="http://www.w3.org/2000/svg" viewBox="0 0 420 740" role="img" aria-label="Discusión: challenge. La disposición muestra relaciones, no magnitudes."><text x="210" y="46" text-anchor="middle" font-size="26" font-weight="700" fill="#152238" stroke="none"><tspan x="210" dy="-0.0">Discusión</tspan></text><path d="M3 4h18v13H9l-6 4V4M7 8h10M7 12h6" transform="translate(187 104) scale(1.9)" fill="none" stroke-width="1.3" stroke="#334155" /><rect x="24" y="167" width="372" height="256" rx="18" fill="none" stroke-width="2" stroke="#576472" /><rect x="24" y="447" width="372" height="256" rx="18" fill="none" stroke-width="2" stroke="#576472" /><rect x="40" y="175" width="340" height="100" rx="16" stroke-width="2" fill="#ffffff" stroke="#ffffff" /><rect x="40" y="175" width="340" height="100" rx="16" fill="none" stroke-width="2" stroke="#152238" /><text x="210" y="233" text-anchor="middle" font-size="24" font-weight="600" fill="#152238" stroke="none"><tspan x="210" dy="-0.0">Pregunta</tspan></text><rect x="40" y="315" width="340" height="100" rx="16" stroke-width="2" fill="#ffffff" stroke="#ffffff" /><rect x="40" y="315" width="340" height="100" rx="16" fill="none" stroke-width="2" stroke="#152238" /><text x="210" y="373" text-anchor="middle" font-size="24" font-weight="600" fill="#152238" stroke="none"><tspan x="210" dy="-0.0">Persona</tspan></text><rect x="40" y="455" width="340" height="100" rx="16" stroke-width="2" fill="#ffffff" stroke="#ffffff" /><rect x="40" y="455" width="340" height="100" rx="16" fill="none" stroke-width="2" stroke="#152238" /><text x="210" y="513" text-anchor="middle" font-size="24" font-weight="600" fill="#152238" stroke="none"><tspan x="210" dy="-0.0">Revisión</tspan></text><rect x="40" y="595" width="340" height="100" rx="16" stroke-width="2" fill="#ffffff" stroke="#ffffff" /><rect x="40" y="595" width="340" height="100" rx="16" fill="none" stroke-width="2" stroke="#334155" /><text x="210" y="653" text-anchor="middle" font-size="24" font-weight="600" fill="#152238" stroke="none"><tspan x="210" dy="-0.0">Resultado</tspan></text></svg>
