<svg xmlns="http://www.w3.org/2000/svg" viewBox="0 0 960 540" role="img" aria-label="Evidencia: receipt. La disposición muestra relaciones, no magnitudes."><text x="480" y="48" text-anchor="middle" font-size="28" font-weight="700" fill="#152238" stroke="none"><tspan x="480" dy="-0.0">Evidencia</tspan></text><rect x="4" y="4" width="16" height="18" rx="2" transform="translate(445 66) scale(2.8)" fill="none" stroke-width="1.3" stroke="#334155" /><rect x="8" y="2" width="8" height="4" rx="1" transform="translate(445 66) scale(2.8)" fill="none" stroke-width="1.3" stroke="#334155" /><path d="M8 10h8M8 14h8M8 18h5" transform="translate(445 66) scale(2.8)" fill="none" stroke-width="1.3" stroke="#334155" /><line x1="270" y1="190" x2="690" y2="190" stroke-width="3" fill="none" stroke="#576472" /><path d="M492.00 190.00L472.63 196.75L472.63 183.25Z" stroke-width="1" fill="none" stroke="#334155" /><line x1="690" y1="190" x2="690" y2="410" stroke-width="3" fill="none" stroke="#576472" /><path d="M690.00 312.00L683.25 292.63L696.75 292.63Z" stroke-width="1" fill="none" stroke="#334155" /><line x1="690" y1="410" x2="270" y2="410" stroke-width="3" fill="none" stroke="#576472" /><path d="M468.00 410.00L487.37 403.25L487.37 416.75Z" stroke-width="1" fill="none" stroke="#334155" /><line x1="270" y1="410" x2="270" y2="190" stroke-width="3" fill="none" stroke="#576472" /><path d="M270.00 288.00L276.75 307.37L263.25 307.37Z" stroke-width="1" fill="none" stroke="#334155" /><rect x="168" y="156" width="204" height="68" rx="12" stroke-width="2" fill="#ffffff" stroke="#ffffff" /><rect x="168" y="156" width="204" height="68" rx="12" fill="none" stroke-width="2" stroke="#152238" /><text x="270" y="197" text-anchor="middle" font-size="24" font-weight="600" fill="#152238" stroke="none"><tspan x="270" dy="-0.0">Fuente</tspan></text><rect x="588" y="156" width="204" height="68" rx="12" stroke-width="2" fill="#ffffff" stroke="#ffffff" /><rect x="588" y="156" width="204" height="68" rx="12" fill="none" stroke-width="2" stroke="#152238" /><text x="690" y="197" text-anchor="middle" font-size="24" font-weight="600" fill="#152238" stroke="none"><tspan x="690" dy="-0.0">Afirmación</tspan></text><rect x="588" y="376" width="204" height="68" rx="12" stroke-width="2" fill="#ffffff" stroke="#ffffff" /><rect x="588" y="376" width="204" height="68" rx="12" fill="none" stroke-width="2" stroke="#152238" /><text x="690" y="417" text-anchor="middle" font-size="24" font-weight="600" fill="#152238" stroke="none"><tspan x="690" dy="-0.0">Revisión</tspan></text><rect x="168" y="376" width="204" height="68" rx="12" stroke-width="2" fill="#ffffff" stroke="#ffffff" /><rect x="168" y="376" width="204" height="68" rx="12" fill="none" stroke-width="2" stroke="#334155" /><text x="270" y="417" text-anchor="middle" font-size="24" font-weight="600" fill="#152238" stroke="none"><tspan x="270" dy="-0.0">Límite</tspan></text></svg>
