<svg xmlns="http://www.w3.org/2000/svg" viewBox="0 0 960 540" role="img" aria-label="Recorrido: parallel tracks. La disposición muestra relaciones, no magnitudes."><text x="480" y="48" text-anchor="middle" font-size="28" font-weight="700" fill="#152238" stroke="none"><tspan x="480" dy="-0.0">Recorrido</tspan></text><path d="M3 21V4h8v16h10V4M17 8l4-4 3 4" transform="translate(445 66) scale(2.8)" fill="none" stroke-width="1.3" stroke="#334155" /><circle cx="3" cy="21" r="2" transform="translate(445 66) scale(2.8)" fill="none" stroke-width="1.3" stroke="#334155" /><rect x="70" y="145" width="820" height="345" rx="12" fill="none" stroke-width="2" stroke="#576472" /><line x1="480" y1="145" x2="480" y2="490" stroke-width="2" fill="none" stroke="#576472" /><line x1="70" y1="315" x2="890" y2="315" stroke-width="2" fill="none" stroke="#576472" /><rect x="158" y="186" width="204" height="68" rx="12" stroke-width="2" fill="#ffffff" stroke="#ffffff" /><rect x="158" y="186" width="204" height="68" rx="12" fill="none" stroke-width="2" stroke="#152238" /><text x="260" y="227" text-anchor="middle" font-size="24" font-weight="600" fill="#152238" stroke="none"><tspan x="260" dy="-0.0">Contexto</tspan></text><rect x="598" y="186" width="204" height="68" rx="12" stroke-width="2" fill="#ffffff" stroke="#ffffff" /><rect x="598" y="186" width="204" height="68" rx="12" fill="none" stroke-width="2" stroke="#152238" /><text x="700" y="227" text-anchor="middle" font-size="24" font-weight="600" fill="#152238" stroke="none"><tspan x="700" dy="-0.0">Objetivo</tspan></text><rect x="158" y="361" width="204" height="68" rx="12" stroke-width="2" fill="#ffffff" stroke="#ffffff" /><rect x="158" y="361" width="204" height="68" rx="12" fill="none" stroke-width="2" stroke="#152238" /><text x="260" y="402" text-anchor="middle" font-size="24" font-weight="600" fill="#152238" stroke="none"><tspan x="260" dy="-0.0">Acción</tspan></text><rect x="598" y="361" width="204" height="68" rx="12" stroke-width="2" fill="#ffffff" stroke="#ffffff" /><rect x="598" y="361" width="204" height="68" rx="12" fill="none" stroke-width="2" stroke="#334155" /><text x="700" y="402" text-anchor="middle" font-size="24" font-weight="600" fill="#152238" stroke="none"><tspan x="700" dy="-0.0">Evidencia</tspan></text></svg>
