<svg xmlns="http://www.w3.org/2000/svg" viewBox="0 0 960 540" role="img" aria-label="Progresión: progression. La disposición muestra relaciones, no magnitudes."><text x="480" y="48" text-anchor="middle" font-size="28" font-weight="700" fill="#152238" stroke="none"><tspan x="480" dy="-0.0">Progresión</tspan></text><path d="m12 2 10 5-10 5L2 7zM2 12l10 5 10-5M2 17l10 5 10-5" transform="translate(445 66) scale(2.8)" fill="none" stroke-width="1.3" stroke="#334155" /><path d="M70 390Q480 0 890 390M70 390h820" fill="none" stroke-width="5" stroke="#334155" /><line x1="155" y1="280" x2="370" y2="205" stroke-width="3" fill="none" stroke="#576472" /><path d="M273.83 238.55L257.76 251.31L253.31 238.55Z" stroke-width="1" fill="none" stroke="#334155" /><line x1="370" y1="205" x2="590" y2="350" stroke-width="3" fill="none" stroke="#576472" /><path d="M490.02 284.10L470.13 279.08L477.56 267.80Z" stroke-width="1" fill="none" stroke="#334155" /><line x1="590" y1="350" x2="805" y2="280" stroke-width="3" fill="none" stroke="#576472" /><path d="M708.91 311.28L692.58 323.71L688.40 310.86Z" stroke-width="1" fill="none" stroke="#334155" /><rect x="53" y="246" width="204" height="68" rx="12" stroke-width="2" fill="#ffffff" stroke="#ffffff" /><rect x="53" y="246" width="204" height="68" rx="12" fill="none" stroke-width="2" stroke="#152238" /><text x="155" y="287" text-anchor="middle" font-size="24" font-weight="600" fill="#152238" stroke="none"><tspan x="155" dy="-0.0">Contexto</tspan></text><rect x="268" y="171" width="204" height="68" rx="12" stroke-width="2" fill="#ffffff" stroke="#ffffff" /><rect x="268" y="171" width="204" height="68" rx="12" fill="none" stroke-width="2" stroke="#152238" /><text x="370" y="212" text-anchor="middle" font-size="24" font-weight="600" fill="#152238" stroke="none"><tspan x="370" dy="-0.0">Objetivo</tspan></text><rect x="488" y="316" width="204" height="68" rx="12" stroke-width="2" fill="#ffffff" stroke="#ffffff" /><rect x="488" y="316" width="204" height="68" rx="12" fill="none" stroke-width="2" stroke="#152238" /><text x="590" y="357" text-anchor="middle" font-size="24" font-weight="600" fill="#152238" stroke="none"><tspan x="590" dy="-0.0">Acción</tspan></text><rect x="703" y="246" width="204" height="68" rx="12" stroke-width="2" fill="#ffffff" stroke="#ffffff" /><rect x="703" y="246" width="204" height="68" rx="12" fill="none" stroke-width="2" stroke="#334155" /><text x="805" y="287" text-anchor="middle" font-size="24" font-weight="600" fill="#152238" stroke="none"><tspan x="805" dy="-0.0">Evidencia</tspan></text></svg>
